<svg width="211" height="198" viewBox="0 0 211 198" fill="none" xmlns="http://www.w3.org/2000/svg">
<path d="M208.555 188.833C211.225 186.869 211.797 183.114 209.833 180.445C207.869 177.775 204.114 177.203 201.445 179.167L208.555 188.833ZM159.5 190L160.401 184.068L159.5 190ZM117.778 104L114.516 98.9641L114.218 99.157L113.945 99.3835L117.778 104ZM146 109.5L140.104 110.612L146 109.5ZM134.5 128.5L130.929 123.679L134.5 128.5ZM68.4445 123.111L65.6415 128.416L68.4445 123.111ZM30.8889 61.6667L36.8375 60.8829L30.8889 61.6667ZM42 6L46.9649 2.63099C46.0334 1.25836 44.5753 0.332588 42.9368 0.0735865C41.2984 -0.185415 39.6258 0.24547 38.3164 1.26389L42 6ZM2.31636 29.2639C-0.299326 31.2983 -0.770534 35.068 1.26389 37.6836C3.29831 40.2993 7.06796 40.7705 9.68364 38.7361L2.31636 29.2639ZM56.0351 37.369C57.8958 40.111 61.627 40.8255 64.369 38.9649C67.111 37.1042 67.8255 33.373 65.9649 30.631L56.0351 37.369ZM201.445 179.167C197.417 182.13 190.668 184.001 182.621 184.734C174.764 185.449 166.558 185.003 160.401 184.068L158.599 195.932C165.606 196.996 174.787 197.496 183.708 196.684C192.438 195.889 201.857 193.761 208.555 188.833L201.445 179.167ZM160.401 184.068C142.43 181.338 124.179 168.277 117.797 153.313L106.759 158.02C115.019 177.389 137.182 192.679 158.599 195.932L160.401 184.068ZM117.797 153.313C114.275 145.055 111.815 136.543 111.979 128.754C112.137 121.236 114.715 114.341 121.61 108.616L113.945 99.3835C104.035 107.611 100.203 117.967 99.9815 128.502C99.7661 138.767 102.96 149.112 106.759 158.02L117.797 153.313ZM121.04 109.036C127.45 104.884 132.297 104.454 135.161 105.2C137.818 105.892 139.564 107.752 140.104 110.612L151.896 108.388C150.527 101.13 145.495 95.4903 138.185 93.5868C131.082 91.7373 122.772 93.6164 114.516 98.9641L121.04 109.036ZM140.104 110.612C140.58 113.136 140.06 114.852 138.788 116.628C137.269 118.749 134.732 120.861 130.929 123.679L138.071 133.321C141.768 130.583 145.786 127.467 148.545 123.613C151.552 119.413 153.032 114.408 151.896 108.388L140.104 110.612ZM130.929 123.679C124.486 128.451 113.988 129.489 101.993 127.694C90.2719 125.94 78.6137 121.698 71.2474 117.806L65.6415 128.416C74.1411 132.907 87.0886 137.598 100.218 139.562C113.074 141.485 127.671 141.026 138.071 133.321L130.929 123.679ZM71.2474 117.806C49.7161 106.43 40.1261 85.8426 36.8375 60.8829L24.9403 62.4504C28.5012 89.4768 39.3377 114.518 65.6415 128.416L71.2474 117.806ZM36.8375 60.8829C34.3466 41.978 39.3678 26.6958 47.4829 8.43683L36.5171 3.56317C28.1516 22.3857 22.0063 40.1818 24.9403 62.4504L36.8375 60.8829ZM38.3164 1.26389L2.31636 29.2639L9.68364 38.7361L45.6837 10.7361L38.3164 1.26389ZM37.0352 9.36901L56.0351 37.369L65.9649 30.631L46.9649 2.63099L37.0352 9.36901Z" fill="url(#paint0_linear_102_12)"/>
<defs>
<linearGradient id="paint0_linear_102_12" x1="113.098" y1="6" x2="113.098" y2="190.59" gradientUnits="userSpaceOnUse">
<stop stop-color="#31E1F7"/>
<stop offset="1" stop-color="#6FEDD6"/>
</linearGradient>
</defs>
</svg>
