<svg width="213" height="198" viewBox="0 0 213 198" fill="none" xmlns="http://www.w3.org/2000/svg">
<path d="M210.555 188.833C213.225 186.869 213.797 183.114 211.833 180.445C209.869 177.775 206.114 177.203 203.444 179.167L210.555 188.833ZM161.5 190L162.401 184.068L161.5 190ZM119.778 104L116.516 98.9641L116.218 99.1569L115.945 99.3835L119.778 104ZM148 109.5L142.104 110.612L148 109.5ZM136.5 128.5L132.928 123.679L136.5 128.5ZM70.4443 123.111L67.6413 128.416L70.4443 123.111ZM32.8887 61.6666L38.8373 60.8829L32.8887 61.6666ZM43.9998 5.99997L49.6919 4.10258C49.0484 2.17195 47.4701 0.699128 45.4996 0.190437C43.5291 -0.318255 41.4351 0.206535 39.9375 1.5844L43.9998 5.99997ZM2.43765 36.0845C-0.00100679 38.328 -0.159149 42.1237 2.08443 44.5624C4.328 47.001 8.1237 47.1592 10.5624 44.9156L2.43765 36.0845ZM51.3079 46.8974C52.3558 50.0411 55.7537 51.74 58.8974 50.6921C62.041 49.6442 63.74 46.2463 62.6921 43.1026L51.3079 46.8974ZM203.444 179.167C199.417 182.13 192.668 184.001 184.62 184.733C176.764 185.449 168.558 185.003 162.401 184.068L160.599 195.932C167.606 196.996 176.787 197.496 185.708 196.684C194.438 195.889 203.857 193.761 210.555 188.833L203.444 179.167ZM162.401 184.068C144.43 181.338 126.178 168.277 119.797 153.313L108.759 158.02C117.019 177.389 139.182 192.679 160.599 195.932L162.401 184.068ZM119.797 153.313C116.275 145.055 113.815 136.543 113.979 128.754C114.136 121.236 116.715 114.341 123.61 108.616L115.945 99.3835C106.034 107.611 102.202 117.966 101.981 128.502C101.766 138.767 104.959 149.112 108.759 158.02L119.797 153.313ZM123.039 109.036C129.45 104.884 134.296 104.454 137.161 105.2C139.818 105.892 141.564 107.752 142.104 110.612L153.896 108.388C152.526 101.13 147.495 95.4902 140.185 93.5868C133.082 91.7372 124.772 93.6164 116.516 98.9641L123.039 109.036ZM142.104 110.612C142.58 113.136 142.059 114.852 140.788 116.628C139.269 118.749 136.732 120.861 132.928 123.679L140.071 133.321C143.767 130.583 147.786 127.467 150.545 123.613C153.552 119.413 155.032 114.408 153.896 108.388L142.104 110.612ZM132.928 123.679C126.485 128.451 115.987 129.489 103.993 127.694C92.2718 125.94 80.6135 121.698 73.2472 117.806L67.6413 128.416C76.1409 132.907 89.0884 137.598 102.217 139.562C115.073 141.485 129.67 141.026 140.071 133.321L132.928 123.679ZM73.2472 117.806C51.7159 106.43 42.1259 85.8426 38.8373 60.8829L26.9401 62.4504C30.501 89.4768 41.3375 114.518 67.6413 128.416L73.2472 117.806ZM38.8373 60.8829C36.3465 41.9779 41.3676 26.6958 49.4827 8.4368L38.517 3.56314C30.1514 22.3856 24.0061 40.1817 26.9401 62.4504L38.8373 60.8829ZM39.9375 1.5844L2.43765 36.0845L10.5624 44.9156L48.0622 10.4155L39.9375 1.5844ZM38.3077 7.89736L51.3079 46.8974L62.6921 43.1026L49.6919 4.10258L38.3077 7.89736Z" fill="url(#paint0_linear_102_12)"/>
<defs>
<linearGradient id="paint0_linear_102_12" x1="115.098" y1="5.99997" x2="115.098" y2="190.589" gradientUnits="userSpaceOnUse">
<stop stop-color="#31E1F7"/>
<stop offset="1" stop-color="#6FEDD6"/>
</linearGradient>
</defs>
</svg>
