<svg width="178" height="154" viewBox="0 0 178 154" fill="none" xmlns="http://www.w3.org/2000/svg">
<path d="M120.181 133.249L116.723 136.861L120.181 133.249ZM44 88L48.5091 85.8394L44 88ZM48.2726 2.90292C46.8383 0.543227 43.7626 -0.206936 41.4029 1.22739L2.94942 24.6011C0.58972 26.0354 -0.160442 29.1111 1.27388 31.4708C2.70821 33.8304 5.78387 34.5806 8.14357 33.1463L42.3245 12.3697L63.1011 46.5506C64.5354 48.9103 67.611 49.6604 69.9707 48.2261C72.3304 46.7918 73.0806 43.7161 71.6463 41.3564L48.2726 2.90292ZM178 143.5C150.964 143.5 135.903 141.378 123.638 129.637L116.723 136.861C132.143 151.622 151.036 153.5 178 153.5V143.5ZM129.5 67C138.386 67 144.701 70.7297 148.92 76.1844C153.251 81.7824 155.5 89.3998 155.5 97H165.5C165.5 87.6002 162.749 77.7176 156.83 70.0656C150.799 62.2703 141.614 57 129.5 57V67ZM155.5 97C155.5 105.137 151.312 112.614 143.934 118.399C136.53 124.205 126.12 128.098 114.54 128.798C91.5967 130.185 64.4 119.003 48.5091 85.8394L39.4909 90.1606C57.179 127.075 88.2324 140.406 115.144 138.78C128.492 137.973 140.91 133.478 150.104 126.269C159.323 119.04 165.5 108.875 165.5 97H155.5ZM48.5091 85.8394C43.2991 74.9664 42.0089 60.4699 42.8052 45.7068C43.5952 31.0618 46.3995 16.7631 48.8576 6.68478L39.1424 4.31522C36.6005 14.7369 33.6548 29.6882 32.8197 45.1682C31.9911 60.5301 33.2009 77.0336 39.4909 90.1606L48.5091 85.8394ZM123.638 129.637C115.659 121.999 103.84 112.214 103.499 96.8886L93.5012 97.1114C93.9542 117.439 109.82 130.253 116.723 136.861L123.638 129.637ZM103.499 96.8886C103.32 88.8839 105.507 81.3382 109.782 75.9077C113.946 70.6176 120.334 67 129.5 67V57C117.338 57 108.027 61.9692 101.924 69.7224C95.9317 77.3353 93.2824 87.2896 93.5012 97.1114L103.499 96.8886Z" fill="url(#paint0_linear_119_7)"/>
<defs>
<linearGradient id="paint0_linear_119_7" x1="97" y1="-12.5" x2="97" y2="145" gradientUnits="userSpaceOnUse">
<stop stop-color="#FBB454"/>
<stop offset="0.0001" stop-color="#3B44F6"/>
<stop offset="1" stop-color="#72FFFF"/>
</linearGradient>
</defs>
</svg>
